<svg width="74" height="74" viewBox="0 0 74 74" fill="none" xmlns="http://www.w3.org/2000/svg">
<circle cx="37" cy="37" r="36" fill="url(#paint0_angular_844_196)"/>
<circle cx="37" cy="37" r="37" fill="url(#paint1_radial_844_196)" fill-opacity="0.7"/>
<path d="M37.4463 13.1693C37.17 13.0544 36.8741 12.9987 36.5762 13.0056C36.2748 12.9832 35.9721 13.0283 35.6888 13.1377C35.4058 13.2471 35.1484 13.4182 34.935 13.6395C34.7212 13.8608 34.5558 14.1271 34.45 14.4204C34.3447 14.7136 34.3011 15.0269 34.3227 15.339V30.6734C34.316 30.9818 34.3699 31.2882 34.4807 31.5744C34.5915 31.8606 34.7574 32.1205 34.968 32.3387C35.1787 32.5567 35.4298 32.7283 35.7061 32.8431C35.9824 32.958 36.2783 33.0137 36.5762 33.0069C36.8741 33.0137 37.17 32.958 37.4463 32.8431C37.723 32.7283 37.9737 32.5567 38.1844 32.3387C38.395 32.1205 38.5609 31.8606 38.6717 31.5744C38.7825 31.2882 38.8364 30.9818 38.8297 30.6734V15.339C38.8364 15.0308 38.7825 14.7242 38.6717 14.4381C38.6088 14.2753 38.5279 14.1211 38.4312 13.9782C38.3577 13.8698 38.2752 13.7679 38.1844 13.6738C38.0763 13.5621 37.958 13.4625 37.8311 13.3765C37.71 13.2947 37.5811 13.2252 37.4463 13.1693Z" fill="#5E5F67"/>
<path d="M41.8448 22.1315C41.7886 21.2598 41.5273 20.4157 41.0832 19.6727C43.7631 20.414 46.2111 21.8638 48.1864 23.88C50.162 25.8963 51.5973 28.4097 52.3515 31.1735C53.2574 34.4192 53.2133 37.87 52.2249 41.0898C51.2369 44.3095 49.3489 47.1536 46.7999 49.2626C44.2508 51.3715 41.1551 52.6505 37.9042 52.938C34.6532 53.2256 31.3928 52.5086 28.5353 50.8777C25.6777 49.2469 23.3511 46.7756 21.8503 43.7759C20.349 40.7763 19.7402 37.3832 20.1014 34.0255C20.4622 30.6678 21.7764 27.4963 23.8782 24.912C25.9796 22.3276 28.7738 20.4464 31.9077 19.5061C31.4259 20.2645 31.1429 21.1396 31.0863 22.0455C31.0301 22.9513 31.2022 23.8568 31.5858 24.673C29.1 25.8354 27.0741 27.8447 25.8459 30.3661C24.6174 32.8874 24.2606 35.7686 24.8347 38.5293C25.4089 41.29 26.8792 43.7636 29.0014 45.5379C31.1232 47.3122 33.7682 48.28 36.4956 48.28C39.2231 48.28 41.868 47.3122 43.9899 45.5379C46.1117 43.7636 47.5823 41.29 48.1565 38.5293C48.7307 35.7686 48.3739 32.8874 47.1453 30.3661C45.9168 27.8447 43.8908 25.8354 41.4055 24.673C41.7501 23.8758 41.9006 23.0031 41.8448 22.1315Z" fill="#5E5F67"/>
<defs>
<radialGradient id="paint0_angular_844_196" cx="0" cy="0" r="1" gradientUnits="userSpaceOnUse" gradientTransform="translate(37 37) rotate(113.973) scale(47.124)">
<stop offset="0.0285429" stop-color="#585757" stop-opacity="0.85"/>
<stop offset="0.354167" stop-color="#939191"/>
<stop offset="0.441394" stop-color="#BEBEC2"/>
<stop offset="0.600749" stop-color="#AFACAC" stop-opacity="0.21"/>
<stop offset="0.89082" stop-color="#939191"/>
</radialGradient>
<radialGradient id="paint1_radial_844_196" cx="0" cy="0" r="1" gradientUnits="userSpaceOnUse" gradientTransform="translate(25.5803 -45.2222) rotate(68.7171) scale(271.829)">
<stop offset="0.0469773" stop-color="white"/>
<stop offset="0.242569" stop-color="#EAEAEA"/>
<stop offset="0.303661" stop-color="#EBEBEB"/>
<stop offset="0.399822" stop-color="#777777"/>
</radialGradient>
</defs>
</svg>
