<svg width="211" height="87" viewBox="0 0 211 87" fill="none" xmlns="http://www.w3.org/2000/svg">
<path fill-rule="evenodd" clip-rule="evenodd" d="M58.4026 54.0848L87.6635 77L118.208 49.5884L118.344 71.8186L156.335 70.8186V54.8186H137.844V15.5914H118L118.122 35.492L116.163 34L91.1635 56L85.6635 51.5L110.663 29.5L101.163 21L76.6635 43.5L70.6635 39.5L96.0119 17L86.6632 10L58.9329 33.6222C58.3637 31.5112 57.5826 29.5532 56.5895 27.7483C54.2812 23.5012 50.9943 20.2512 46.7287 17.9983C42.4815 15.727 37.4403 14.5914 31.6051 14.5914H10V71.3186H31.8267C37.5881 71.3186 42.5831 70.1922 46.8118 67.9394C51.0405 65.6681 54.3089 62.4181 56.6172 58.1894C57.319 56.898 57.9141 55.5298 58.4026 54.0848ZM31.2727 58.2448H25.4006V27.6652H30.8295C33.7841 27.6652 36.277 28.1176 38.3082 29.0225C40.358 29.9273 41.9091 31.4877 42.9617 33.7036C44.0327 35.9195 44.5682 39.0033 44.5682 42.955C44.5682 46.9067 44.0419 49.9905 42.9893 52.2064C41.9553 54.4223 40.4411 55.9827 38.4467 56.8875C36.4709 57.7924 34.0795 58.2448 31.2727 58.2448ZM162 15.5914L162.344 71.8186L200.335 70.8186V54.8186H181.844V15.5914H162Z" fill="#007DB8"/>
</svg>
