<svg width="50" height="50" viewBox="0 0 50 50" xmlns="http://www.w3.org/2000/svg">
<path d="M10.9375 23.4375C10.5231 23.4375 10.1257 23.6021 9.83265 23.8951C9.53962 24.1882 9.375 24.5856 9.375 25C9.375 25.4144 9.53962 25.8118 9.83265 26.1049C10.1257 26.3979 10.5231 26.5625 10.9375 26.5625H39.0625C39.4769 26.5625 39.8743 26.3979 40.1674 26.1049C40.4604 25.8118 40.625 25.4144 40.625 25C40.625 24.5856 40.4604 24.1882 40.1674 23.8951C39.8743 23.6021 39.4769 23.4375 39.0625 23.4375H10.9375Z" />
<path d="M0 25C0 22.5136 0.98772 20.129 2.74587 18.3709C4.50403 16.6127 6.8886 15.625 9.375 15.625H40.625C43.1114 15.625 45.496 16.6127 47.2541 18.3709C49.0123 20.129 50 22.5136 50 25C50 27.4864 49.0123 29.871 47.2541 31.6291C45.496 33.3873 43.1114 34.375 40.625 34.375H9.375C6.8886 34.375 4.50403 33.3873 2.74587 31.6291C0.98772 29.871 0 27.4864 0 25H0ZM9.375 18.75C7.7174 18.75 6.12769 19.4085 4.95558 20.5806C3.78348 21.7527 3.125 23.3424 3.125 25C3.125 26.6576 3.78348 28.2473 4.95558 29.4194C6.12769 30.5915 7.7174 31.25 9.375 31.25H40.625C42.2826 31.25 43.8723 30.5915 45.0444 29.4194C46.2165 28.2473 46.875 26.6576 46.875 25C46.875 23.3424 46.2165 21.7527 45.0444 20.5806C43.8723 19.4085 42.2826 18.75 40.625 18.75H9.375Z" />
</svg>
