<svg width="50" height="50" viewBox="0 0 50 50" fill="none" xmlns="http://www.w3.org/2000/svg">
<g clip-path="url(#clip0_1_44)">
<path d="M7.8125 21.875C7.3981 21.875 7.00067 22.0396 6.70765 22.3326C6.41462 22.6257 6.25 23.0231 6.25 23.4375V26.5625C6.25 26.9769 6.41462 27.3743 6.70765 27.6674C7.00067 27.9604 7.3981 28.125 7.8125 28.125C8.2269 28.125 8.62433 27.9604 8.91735 27.6674C9.21038 27.3743 9.375 26.9769 9.375 26.5625V25H40.625V26.5625C40.625 26.9769 40.7896 27.3743 41.0826 27.6674C41.3757 27.9604 41.7731 28.125 42.1875 28.125C42.6019 28.125 42.9993 27.9604 43.2924 27.6674C43.5854 27.3743 43.75 26.9769 43.75 26.5625V23.4375C43.75 23.0231 43.5854 22.6257 43.2924 22.3326C42.9993 22.0396 42.6019 21.875 42.1875 21.875H7.8125Z" fill="#222"/>
<path d="M3.125 15.625C2.2962 15.625 1.50134 15.9542 0.915291 16.5403C0.32924 17.1263 0 17.9212 0 18.75L0 28.7219C0.000309839 29.3021 0.162135 29.8707 0.467351 30.3641C0.772567 30.8576 1.20912 31.2563 1.72812 31.5156L6.78438 34.0469C7.21825 34.2631 7.69648 34.3755 8.18125 34.375H46.875C47.7038 34.375 48.4987 34.0458 49.0847 33.4597C49.6708 32.8737 50 32.0788 50 31.25V18.75C50 17.9212 49.6708 17.1263 49.0847 16.5403C48.4987 15.9542 47.7038 15.625 46.875 15.625H3.125ZM3.125 18.75H46.875V31.25H8.18125L3.125 28.7219V18.75Z" fill="#222"/>
</g>
<defs>
<clipPath id="clip0_1_44">
<rect width="50" height="50" fill="white"/>
</clipPath>
</defs>
</svg>
