<svg width="50" height="50" viewBox="0 0 50 50" fill="none" xmlns="http://www.w3.org/2000/svg">
<g clip-path="url(#clip0_1_48)">
<path d="M7.8125 21.875C7.3981 21.875 7.00067 22.0396 6.70765 22.3326C6.41462 22.6257 6.25 23.0231 6.25 23.4375C6.25 23.8519 6.41462 24.2493 6.70765 24.5424C7.00067 24.8354 7.3981 25 7.8125 25H42.1875C42.6019 25 42.9993 24.8354 43.2924 24.5424C43.5854 24.2493 43.75 23.8519 43.75 23.4375C43.75 23.0231 43.5854 22.6257 43.2924 22.3326C42.9993 22.0396 42.6019 21.875 42.1875 21.875H7.8125Z" fill="#222"/>
<path d="M3.125 15.625C2.2962 15.625 1.50134 15.9542 0.915291 16.5403C0.32924 17.1263 0 17.9212 0 18.75L0 28.125C0 28.9538 0.32924 29.7487 0.915291 30.3347C1.50134 30.9208 2.2962 31.25 3.125 31.25H4.04062L6.25 33.4594C6.83591 34.0455 7.63064 34.3748 8.45938 34.375H41.5406C42.3694 34.3748 43.1641 34.0455 43.75 33.4594L45.9594 31.25H46.875C47.7038 31.25 48.4987 30.9208 49.0847 30.3347C49.6708 29.7487 50 28.9538 50 28.125V18.75C50 17.9212 49.6708 17.1263 49.0847 16.5403C48.4987 15.9542 47.7038 15.625 46.875 15.625H3.125ZM3.125 18.75H46.875V28.125H45.9594C45.1306 28.1252 44.3359 28.4545 43.75 29.0406L41.5406 31.25H8.45938L6.25 29.0406C5.66409 28.4545 4.86936 28.1252 4.04062 28.125H3.125V18.75Z" fill="#222"/>
</g>
<defs>
<clipPath id="clip0_1_48">
<rect width="50" height="50" fill="white"/>
</clipPath>
</defs>
</svg>
