<svg width="214" height="214" viewBox="0 0 214 214" fill="none" xmlns="http://www.w3.org/2000/svg">
<circle cx="107" cy="107" r="107" fill="#342F2F"/>
<circle cx="107" cy="107" r="102" fill="url(#paint0_radial_43_274)"/>
<circle cx="107" cy="107" r="50" fill="#342F2F"/>
<circle cx="107" cy="107" r="46" fill="url(#paint1_radial_43_274)"/>
<path fill-rule="evenodd" clip-rule="evenodd" d="M142.875 25C144.898 25 145.574 22.4552 143.761 21.5583C132.683 16.0792 120.207 13 107.012 13C93.8164 13 81.3402 16.0792 70.2626 21.5583C68.4493 22.4552 69.1253 25 71.1482 25H75.1111C75.3906 25 75.6669 24.9411 75.923 24.829C85.4421 20.6651 95.9572 18.3548 107.012 18.3548C118.067 18.3548 128.582 20.6651 138.101 24.829C138.357 24.9411 138.633 25 138.913 25H142.875Z" fill="url(#paint2_radial_43_274)"/>
<path fill-rule="evenodd" clip-rule="evenodd" d="M70.9399 191C68.9169 191 68.2409 193.545 70.0542 194.442C81.1319 199.921 93.6081 203 106.803 203C119.999 203 132.475 199.921 143.553 194.442C145.366 193.545 144.69 191 142.667 191L138.704 191C138.425 191 138.148 191.059 137.892 191.171C128.373 195.335 117.858 197.645 106.803 197.645C95.7488 197.645 85.2337 195.335 75.7147 191.171C75.4585 191.059 75.1823 191 74.9027 191L70.9399 191Z" fill="url(#paint3_radial_43_274)"/>
<path fill-rule="evenodd" clip-rule="evenodd" d="M24.9725 61C24.304 61 23.6783 61.333 23.3145 61.8939C14.8916 74.8799 10 90.3687 10 107C10 123.631 14.8916 139.12 23.3145 152.106C23.6783 152.667 24.304 153 24.9725 153L26.4845 153C28.1246 153 29.0811 151.124 28.1768 149.756C20.0729 137.494 15.3548 122.798 15.3548 107C15.3548 91.2021 20.0729 76.5061 28.1768 64.2443C29.0811 62.876 28.1246 61 26.4844 61L24.9725 61Z" fill="url(#paint4_radial_43_274)"/>
<path fill-rule="evenodd" clip-rule="evenodd" d="M189.553 153C190.222 153 190.847 152.667 191.211 152.106C199.634 139.12 204.526 123.631 204.526 107C204.526 90.3687 199.634 74.8799 191.211 61.8939C190.847 61.333 190.222 61 189.553 61L188.041 61C186.401 61 185.445 62.876 186.349 64.2443C194.453 76.5061 199.171 91.2021 199.171 107C199.171 122.798 194.453 137.494 186.349 149.756C185.445 151.124 186.401 153 188.041 153L189.553 153Z" fill="url(#paint5_radial_43_274)"/>
<path d="M121.164 89.3438L102.836 113.508L92 102.68L87 107.68L103.664 124.344L127 94.3438L121.164 89.3438Z" fill="#B7B1B1"/>
<path d="M105.682 32.505L97.2893 42.0968C96.2988 43.229 97.1038 45 98.607 45H115.393C115.729 45.0003 116.059 44.9036 116.342 44.7215C116.625 44.5394 116.849 44.2796 116.988 43.9733C117.127 43.6669 117.175 43.327 117.126 42.9942C117.077 42.6614 116.932 42.3498 116.711 42.0968L108.318 32.5068C108.154 32.3188 107.951 32.1681 107.724 32.0649C107.496 31.9617 107.25 31.9083 107 31.9083C106.75 31.9083 106.504 31.9617 106.276 32.0649C106.049 32.1681 105.847 32.3188 105.682 32.5068V32.505Z" fill="#B7B1B1"/>
<path d="M108.318 182.495L116.711 172.903C117.701 171.771 116.896 170 115.393 170L98.607 170C98.2706 170 97.9412 170.096 97.6583 170.279C97.3754 170.461 97.151 170.72 97.0119 171.027C96.8729 171.333 96.8251 171.673 96.8743 172.006C96.9235 172.339 97.0675 172.65 97.2892 172.903L105.682 182.493C105.846 182.681 106.049 182.832 106.276 182.935C106.504 183.038 106.75 183.092 107 183.092C107.25 183.092 107.496 183.038 107.724 182.935C107.951 182.832 108.153 182.681 108.318 182.493L108.318 182.495Z" fill="#B7B1B1"/>
<path d="M27.5692 104.399L37.1961 112.752C38.3325 113.738 40.1001 112.925 40.0938 111.422L40.0233 94.6363C40.0222 94.2999 39.9241 93.9709 39.7409 93.6888C39.5576 93.4067 39.2969 93.1834 38.9899 93.0456C38.683 92.9079 38.3429 92.8615 38.0103 92.9121C37.6777 92.9627 37.3667 93.108 37.1146 93.3308L27.5599 101.764C27.3726 101.929 27.2228 102.132 27.1206 102.36C27.0183 102.588 26.9659 102.835 26.967 103.084C26.968 103.334 27.0225 103.58 27.1266 103.807C27.2308 104.034 27.3823 104.236 27.571 104.399L27.5692 104.399Z" fill="#B7B1B1"/>
<path d="M186.495 101.682L176.903 93.2892C175.771 92.2987 174 93.1037 174 94.607L174 111.393C174 111.729 174.096 112.059 174.278 112.342C174.461 112.625 174.72 112.849 175.027 112.988C175.333 113.127 175.673 113.175 176.006 113.126C176.339 113.077 176.65 112.932 176.903 112.711L186.493 104.318C186.681 104.153 186.832 103.951 186.935 103.724C187.038 103.496 187.092 103.25 187.092 103C187.092 102.75 187.038 102.504 186.935 102.276C186.832 102.049 186.681 101.846 186.493 101.682L186.495 101.682Z" fill="#B7B1B1"/>
<defs>
<radialGradient id="paint0_radial_43_274" cx="0" cy="0" r="1" gradientUnits="userSpaceOnUse" gradientTransform="translate(107 127.019) rotate(133.315) scale(91.7124)">
<stop stop-color="#5B5A5A"/>
<stop offset="1" stop-color="#3D3D3D" stop-opacity="0.8"/>
</radialGradient>
<radialGradient id="paint1_radial_43_274" cx="0" cy="0" r="1" gradientUnits="userSpaceOnUse" gradientTransform="translate(277.5 195.5) rotate(-155.272) scale(425.519)">
<stop stop-color="#504A4A"/>
<stop offset="0.311966" stop-color="#7C7878"/>
<stop offset="0.550561" stop-color="#323135"/>
</radialGradient>
<radialGradient id="paint2_radial_43_274" cx="0" cy="0" r="1" gradientUnits="userSpaceOnUse" gradientTransform="translate(213 40.9999) rotate(-175.415) scale(200.141 1623.37)">
<stop stop-color="#474545" stop-opacity="0.5"/>
<stop offset="1" stop-color="#5F5A5A" stop-opacity="0.708333"/>
</radialGradient>
<radialGradient id="paint3_radial_43_274" cx="0" cy="0" r="1" gradientUnits="userSpaceOnUse" gradientTransform="translate(0.815294 175) rotate(4.58533) scale(200.141 1623.37)">
<stop stop-color="#474545" stop-opacity="0.5"/>
<stop offset="1" stop-color="#5F5A5A" stop-opacity="0.708333"/>
</radialGradient>
<radialGradient id="paint4_radial_43_274" cx="0" cy="0" r="1" gradientUnits="userSpaceOnUse" gradientTransform="translate(51.9999 1.01183) rotate(94.5853) scale(200.141 1623.37)">
<stop stop-color="#474545" stop-opacity="0.5"/>
<stop offset="1" stop-color="#5F5A5A" stop-opacity="0.708333"/>
</radialGradient>
<radialGradient id="paint5_radial_43_274" cx="0" cy="0" r="1" gradientUnits="userSpaceOnUse" gradientTransform="translate(162.526 212.988) rotate(-85.4147) scale(200.141 1623.37)">
<stop stop-color="#474545" stop-opacity="0.5"/>
<stop offset="1" stop-color="#5F5A5A" stop-opacity="0.708333"/>
</radialGradient>
</defs>
</svg>
